# xmcd
#
# Track frame offsets: 
#        150
#        12129
#        24994
#        37014
#        50257
#        61890
#        73456
#        83611
#        94212
#        103737
#        113778
#        125555
#        137656
#        150924
#        161958
#
# Disc length: 2347 seconds
#
# Revision: 0
# Processed by: cddbd v1.5.2PL0 Copyright (c) Steve Scherf et al.
# Submitted via: ExactAudioCopyFreeDBPlugin 1.0
#
DISCID=c309290f
DTITLE=Various Artist - MOJO - Motor City Soul
DYEAR=2019
DGENRE=Soul
TTITLE0=The Contours - The Stretch
TTITLE1=Marv Johnson - Once Upon A Time
TTITLE2=The Miracles - Got A Job
TTITLE3=The Ohio Untouchables - Love Is Amazing
TTITLE4=Briant Holland - (Where's The Joy) In Nature Boy
TTITLE5=Betty Lavette - Witchcraft In The Air
TTITLE6=Sax Kari - Sweet Man
TTITLE7=The Primettes - Tears Of Sorrow
TTITLE8=The Majestics - Hard Times
TTITLE9=The Isley Brothers - Shout (Part One)
TTITLE10=The Falcons - This Heart Of Mine
TTITLE11=The Temptations - Check Yourself
TTITLE12=Nolan Strong and The Diablos - Since You're Gone
TTITLE13=Jackie Wilson - To Be Loved
TTITLE14=Gino Parks - Last Night I Cried
EXTD=
EXTT0=
EXTT1=
EXTT2=
EXTT3=
EXTT4=
EXTT5=
EXTT6=
EXTT7=
EXTT8=
EXTT9=
EXTT10=
EXTT11=
EXTT12=
EXTT13=
EXTT14=
PLAYORDER=
